<svg width="40" height="40" viewBox="0 0 40 40" class="GlobalWriteV2-navIcon" fill="none">
  <circle cx="20" cy="20" r="20" fill="#FF9607" opacity=".12"></circle>
  <path stroke="#FF9607" stroke-width="1.87"
    d="m26.842 16.8 2.674-1.48a1 1 0 0 1 1.484.876v7.281a1 1 0 0 1-1.397.918l-2.76-1.195m0-6.4v-1.6a3.2 3.2 0 0 0-3.2-3.2H13.2a3.2 3.2 0 0 0-3.2 3.2v9.6a3.2 3.2 0 0 0 3.2 3.2h10.442a3.2 3.2 0 0 0 3.2-3.2v-1.6m0-6.4v6.4">
  </path>
  <path stroke="#FF9607" stroke-width="1.87"
    d="M21.133 19.424a.665.665 0 0 1 0 1.152L16.933 23a.665.665 0 0 1-.998-.576v-4.85c0-.512.554-.832.998-.576l4.2 2.425Z">
  </path>
</svg>